<svg preserveAspectRatio="none" width="100%" height="100%" overflow="visible" style="display: block;" viewBox="0 0 68.4984 9.99977" fill="none" xmlns="http://www.w3.org/2000/svg">
<g id="65db1cb0beab54c306909433_logo.svg" clip-path="url(#clip0_0_43)">
<path id="Vector" d="M68.3299 0.0669876C68.4019 0.0669876 68.4439 0.135111 68.4974 0.180526V2.97358C68.4974 3.00369 68.4854 3.03257 68.4639 3.05386C68.4424 3.07516 68.4134 3.08712 68.3834 3.08712H66.7105C66.6955 3.08789 66.68 3.08552 66.6655 3.08016C66.651 3.0748 66.6375 3.06656 66.6265 3.05594C66.6155 3.04532 66.6065 3.03254 66.6005 3.01838C66.5945 3.00422 66.591 2.98898 66.591 2.97358L66.5675 2.172C66.574 2.11379 66.5585 2.05516 66.523 2.0084C66.4875 1.96163 66.4355 1.93034 66.3775 1.92107H63.6835C63.5416 1.92107 63.4686 2.03461 63.4686 2.172V7.43679C63.4686 7.57419 63.5826 7.64343 63.7315 7.64343L65.304 7.66498C65.3345 7.66498 65.363 7.67698 65.3845 7.69823C65.406 7.71953 65.418 7.74843 65.418 7.77853V9.38509C65.418 9.41524 65.406 9.44409 65.3845 9.46539C65.363 9.48669 65.3345 9.49864 65.304 9.49864H59.7521C59.7366 9.49944 59.7211 9.49704 59.7066 9.49169C59.6921 9.48634 59.6791 9.47809 59.6676 9.46749C59.6566 9.45684 59.6476 9.44409 59.6416 9.42989C59.6356 9.41574 59.6326 9.40049 59.6326 9.38509V7.78423C59.6326 7.76883 59.6356 7.75358 59.6416 7.73943C59.6476 7.72528 59.6566 7.71248 59.6676 7.70183C59.6791 7.69123 59.6921 7.68298 59.7066 7.67763C59.7211 7.67228 59.7366 7.66993 59.7521 7.67068L61.2531 7.64908C61.3086 7.65703 61.3651 7.64523 61.4131 7.61579C61.4611 7.58634 61.4966 7.54109 61.5146 7.48789V2.12658C61.5146 1.9892 61.3951 1.92107 61.2531 1.92107H58.5592C58.5012 1.93034 58.4492 1.96163 58.4137 2.0084C58.3782 2.05516 58.3622 2.11379 58.3692 2.172L58.3452 2.97358C58.3452 2.98898 58.3422 3.00422 58.3362 3.01838C58.3302 3.03254 58.3212 3.04532 58.3102 3.05594C58.2987 3.06656 58.2857 3.0748 58.2712 3.08016C58.2567 3.08552 58.2412 3.08789 58.2257 3.08712H56.5577C56.5272 3.08712 56.4987 3.07516 56.4772 3.05386C56.4557 3.03257 56.4437 3.00369 56.4437 2.97358V0.180526C56.4437 0.150414 56.4557 0.121536 56.4772 0.100244C56.4987 0.0789513 56.5272 0.0669876 56.5577 0.0669876H68.3299ZM37.8902 4.09535C38.0791 4.09535 38.1747 4.02608 38.1747 3.82058C38.135 3.54035 38.0468 3.26913 37.9141 3.01899C37.7681 2.69221 37.5323 2.41338 37.2341 2.21484C36.9358 2.0163 36.5872 1.90618 36.2287 1.89723H33.4509C33.0924 1.90618 32.7439 2.0163 32.4456 2.21484C32.1473 2.41338 31.9115 2.69221 31.7656 3.01899C31.6366 3.27089 31.5493 3.54198 31.5073 3.82172C31.4834 4.02722 31.5789 4.09648 31.7679 4.09648L37.8902 4.09535ZM41.996 7.66498C42.0677 7.66498 42.1098 7.71153 42.0905 7.77853V9.38509C42.0905 9.41524 42.0785 9.44409 42.0571 9.46539C42.0358 9.48669 42.0068 9.49864 41.9767 9.49864H36.561C36.5456 9.49944 36.5302 9.49704 36.5157 9.49169C36.5013 9.48634 36.488 9.47809 36.4769 9.46749C36.4657 9.45684 36.4568 9.44409 36.4507 9.42989C36.4446 9.41574 36.4415 9.40049 36.4415 9.38509V7.78423C36.4415 7.76883 36.4446 7.75358 36.4507 7.73943C36.4568 7.72528 36.4657 7.71248 36.4769 7.70183C36.488 7.69123 36.5013 7.68298 36.5157 7.67763C36.5302 7.67228 36.5456 7.66993 36.561 7.67068L37.8902 7.64908C38.0324 7.64908 38.1508 7.57984 38.1508 7.44249V6.22307C38.1508 6.08567 38.0791 5.97212 37.9368 5.97212H31.695C31.5528 5.97212 31.4811 6.08567 31.4811 6.22307V7.43679C31.4811 7.57419 31.6006 7.64343 31.7428 7.64343L33.072 7.66498C33.1021 7.66498 33.1311 7.67698 33.1524 7.69823C33.1738 7.71953 33.1858 7.74843 33.1858 7.77853V9.38509C33.1858 9.41524 33.1738 9.44409 33.1524 9.46539C33.1311 9.48669 33.1021 9.49864 33.072 9.49864H27.6598C27.6296 9.49864 27.6006 9.48669 27.5793 9.46539C27.5579 9.44409 27.546 9.41524 27.546 9.38509V7.78423C27.546 7.75408 27.5579 7.72523 27.5793 7.70393C27.6006 7.68263 27.6296 7.67068 27.6598 7.67068L29.3212 7.64908C29.4634 7.64908 29.5818 7.57984 29.5818 7.44249V4.11805C29.5841 3.81028 29.6162 3.50345 29.6774 3.2018C29.9858 1.66902 31.4583 0.0669876 33.0242 0.0669876H36.6282C38.1713 0.0669876 39.6427 1.66902 39.975 3.2018C40.0362 3.50345 40.0682 3.81028 40.0705 4.11805V7.43679C40.0705 7.57419 40.1843 7.64343 40.3312 7.64343L41.996 7.66498ZM9.36559 9.49864H3.43101C2.1212 9.49864 0.834141 8.37347 0.285633 7.0008C0.0966823 6.50191 -9.22379e-05 5.97297 2.54438e-07 5.43963V4.17368C-0.000181112 3.64072 0.0965988 3.11214 0.285633 2.61366C0.834141 1.23644 2.04836 0.115808 3.43101 0.115808L11.5107 0.0703935C11.5261 0.0696235 11.5415 0.071991 11.556 0.0773508C11.5704 0.0827112 11.5837 0.0909535 11.5948 0.101574C11.606 0.112195 11.6149 0.124972 11.621 0.139131C11.627 0.15329 11.6302 0.168532 11.6301 0.183932V2.98266C11.6302 2.99806 11.627 3.01331 11.621 3.02746C11.6149 3.04162 11.606 3.0544 11.5948 3.06502C11.5837 3.07564 11.5704 3.08389 11.556 3.08925C11.5415 3.09461 11.5261 3.09697 11.5107 3.0962H9.77183C9.75643 3.09697 9.74103 3.09461 9.72653 3.08925C9.71208 3.08389 9.69883 3.07564 9.68768 3.06502C9.67648 3.0544 9.66758 3.04162 9.66153 3.02746C9.65543 3.01331 9.65233 2.99806 9.65233 2.98266L9.62958 2.22536C9.62958 2.08798 9.55788 1.9733 9.41454 1.9733L3.69502 1.99601C3.07482 1.99601 2.43186 2.56938 2.12233 3.30398C2.00961 3.58082 1.95277 3.87715 1.95505 4.17595V5.46123C1.95471 5.75948 2.01148 6.05507 2.12233 6.33206C2.40797 7.06665 3.05207 7.68658 3.69502 7.68658L9.36674 7.66388C9.43503 7.66448 9.50088 7.63828 9.55008 7.59094C9.59923 7.54359 9.62778 7.47884 9.62958 7.41069L9.65233 6.60796C9.65233 6.59256 9.65543 6.57731 9.66153 6.56316C9.66758 6.54901 9.67648 6.53621 9.68768 6.52561C9.69883 6.51496 9.71208 6.50671 9.72653 6.50136C9.74103 6.49601 9.75643 6.49366 9.77183 6.49441H11.5118C11.5272 6.49366 11.5426 6.49601 11.5571 6.50136C11.5716 6.50671 11.5848 6.51496 11.596 6.52561C11.6071 6.53621 11.616 6.54901 11.6221 6.56316C11.6282 6.57731 11.6313 6.59256 11.6313 6.60796V9.36125C11.6313 9.37665 11.6282 9.39189 11.6221 9.40604C11.616 9.42024 11.6071 9.43299 11.596 9.44364C11.5848 9.45424 11.5716 9.46249 11.5571 9.46784C11.5426 9.47319 11.5272 9.47559 11.5118 9.47479H9.79458L9.36559 9.49864ZM21.9971 4.13849C22.1485 4.14328 22.2992 4.11768 22.4405 4.06321C22.5817 4.00873 22.7105 3.9265 22.8193 3.82139C22.928 3.71627 23.0145 3.59042 23.0735 3.45132C23.1326 3.31221 23.163 3.16268 23.163 3.01162C23.163 2.86054 23.1326 2.71102 23.0735 2.57191C23.0145 2.4328 22.928 2.30696 22.8193 2.20185C22.7105 2.09674 22.5817 2.0145 22.4405 1.96002C22.2992 1.90555 22.1485 1.87995 21.9971 1.88475H21.831L16.6885 1.90859C16.6583 1.90859 16.6294 1.92055 16.608 1.94184C16.5867 1.96313 16.5747 1.99201 16.5747 2.02212V3.99997C16.5747 4.03008 16.5867 4.05896 16.608 4.08026C16.6294 4.10155 16.6583 4.11351 16.6885 4.11351L21.831 4.13621L21.9971 4.13849ZM26.2634 7.58894C26.2952 7.59314 26.3253 7.60594 26.3504 7.62599C26.3754 7.64598 26.3946 7.67243 26.4057 7.70248V9.31245C26.4057 9.34255 26.3937 9.37145 26.3723 9.39274C26.351 9.41404 26.3221 9.42599 26.2919 9.42599H20.8774C20.8472 9.42599 20.8183 9.41404 20.7969 9.39274C20.7756 9.37145 20.7636 9.34255 20.7636 9.31245V7.70358C20.7636 7.67348 20.7756 7.64463 20.7969 7.62333C20.8183 7.60204 20.8472 7.59009 20.8774 7.59009L21.8731 7.56734C22.0153 7.56734 22.0631 7.47539 21.9869 7.36069C21.8208 7.13365 21.3041 6.37181 21.1573 6.21057C21.1074 6.14662 21.0421 6.09622 20.9676 6.06407C20.893 6.03197 20.8115 6.01907 20.7306 6.02662H18.3181L16.7056 6.04932C16.6754 6.04932 16.6464 6.06132 16.6251 6.08262C16.6037 6.10387 16.5918 6.13277 16.5918 6.16287V7.35959C16.5918 7.49694 16.7056 7.56624 16.8535 7.56624L18.4649 7.58894C18.495 7.58894 18.524 7.60089 18.5453 7.62219C18.5667 7.64348 18.5787 7.67233 18.5787 7.70248V9.31245C18.5787 9.34255 18.5667 9.37145 18.5453 9.39274C18.524 9.41404 18.495 9.42599 18.4649 9.42599H13.0561C13.0259 9.42599 12.9969 9.41404 12.9756 9.39274C12.9543 9.37145 12.9423 9.34255 12.9423 9.31245V7.70358C12.9423 7.67348 12.9543 7.64463 12.9756 7.62333C12.9969 7.60204 13.0259 7.59009 13.0561 7.59009L14.4068 7.56734C14.5502 7.56734 14.6686 7.49809 14.6686 7.36069V2.13793C14.6686 1.99942 14.5548 1.93016 14.4068 1.93016L13.0322 1.90859C13.002 1.90859 12.973 1.89663 12.9517 1.87533C12.9304 1.85404 12.9184 1.82516 12.9184 1.79505V0.113539C12.9184 0.0834262 12.9304 0.0545489 12.9517 0.0332564C12.973 0.0119637 13.002 0 13.0322 0H22.0381C23.7451 0 25.1198 1.35679 25.1198 3.01332C25.1199 3.53564 24.982 4.04876 24.7198 4.50088C24.4577 4.953 24.0807 5.32814 23.6268 5.58838C23.3662 5.68148 23.3423 5.84273 23.4379 6.00277C23.5084 6.11632 24.1957 7.1768 24.338 7.40614C24.3668 7.46089 24.4116 7.50564 24.4665 7.53439C24.5213 7.56319 24.5837 7.57469 24.6452 7.56734L26.2634 7.58894ZM46.7562 2.22309H46.7846L46.8085 3.56058C46.8085 3.69796 46.8791 3.81377 47.0225 3.81377L51.1133 3.83648C51.1288 3.83571 51.1443 3.83807 51.1588 3.84343C51.1733 3.84879 51.1863 3.85703 51.1978 3.86765C51.2088 3.87828 51.2178 3.89105 51.2238 3.90521C51.2298 3.91937 51.2328 3.93461 51.2328 3.95001V5.56228C51.2328 5.59238 51.2208 5.62123 51.1998 5.64253C51.1783 5.66383 51.1493 5.67578 51.1193 5.67578C51.0988 5.68698 51.0753 5.69288 51.0518 5.69283H46.9656H46.9257C46.8859 5.71683 46.8537 5.75143 46.8325 5.79278C46.8114 5.83408 46.8023 5.88047 46.8063 5.92672L46.7824 7.45494C46.7831 7.47674 46.778 7.49829 46.7676 7.51739C46.7916 7.56029 46.8277 7.59519 46.8714 7.61779C46.915 7.64038 46.9644 7.64968 47.0134 7.64458L48.5792 7.66613C48.6094 7.66613 48.6383 7.67808 48.6597 7.69938C48.681 7.72068 48.693 7.74958 48.693 7.77968V9.38509C48.693 9.41524 48.681 9.44409 48.6597 9.46539C48.6383 9.48669 48.6094 9.49864 48.5792 9.49864H43.167C43.1368 9.49864 43.1079 9.48669 43.0865 9.46539C43.0652 9.44409 43.0532 9.41524 43.0532 9.38509V7.78423C43.0532 7.75408 43.0652 7.72523 43.0865 7.70393C43.1079 7.68263 43.1368 7.67068 43.167 7.67068L44.5678 7.64908C44.6816 7.64908 44.8057 7.60254 44.8285 7.48789V2.12658C44.8285 1.9892 44.7147 1.92107 44.5678 1.92107L43.1431 1.89723C43.1129 1.89723 43.084 1.88527 43.0626 1.86398C43.0413 1.84269 43.0293 1.81381 43.0293 1.78369V0.180526C43.0293 0.150414 43.0413 0.121536 43.0626 0.100244C43.084 0.0789513 43.1129 0.0669876 43.1431 0.0669876H55.2502C55.2792 0.0695455 55.3067 0.0823317 55.3277 0.103095C55.3487 0.123859 55.3612 0.151273 55.3637 0.180526V2.97358C55.3637 3.00369 55.3517 3.03257 55.3307 3.05386C55.3092 3.07516 55.2802 3.08712 55.2502 3.08712H53.5843C53.5538 3.08712 53.5248 3.07516 53.5038 3.05386C53.4823 3.03257 53.4703 3.00369 53.4703 2.97358L53.4463 2.172C53.4533 2.11396 53.4378 2.05548 53.4023 2.00874C53.3673 1.962 53.3153 1.9306 53.2573 1.92107H46.9656C46.8222 1.92107 46.7516 2.03461 46.7516 2.172L46.7562 2.22309Z" fill="var(--fill-0, white)"/>
</g>
<defs>
<clipPath id="clip0_0_43">
<rect width="68.4984" height="9.99977" fill="white"/>
</clipPath>
</defs>
</svg>
