<svg preserveAspectRatio="none" width="100%" height="100%" overflow="visible" style="display: block;" viewBox="0 0 156.528 40.7296" fill="none" xmlns="http://www.w3.org/2000/svg">
<g id="Group">
<path id="Vector" d="M0 0.532549H8.51858V31.9448H24.4909V39.931H0V0.532549Z" fill="var(--fill-0, #CACACA)"/>
<path id="Vector_2" d="M28.4828 13.3105H36.7352V39.9311H28.4828V13.3105ZM32.4759 0.000216411C35.138 0.000216411 37.2676 2.12986 37.2676 4.79192C37.2676 7.45397 35.138 9.58362 32.4759 9.58362C29.8139 9.58362 27.6842 7.45397 27.6842 4.79192C27.6842 2.12986 29.8139 0.000216411 32.4759 0.000216411Z" fill="var(--fill-0, #CACACA)"/>
<path id="Vector_3" d="M71.3418 0.532549H79.5942V23.9586L88.9114 13.3104H99.0272L88.379 25.5559L99.0272 39.931H88.6452L79.5942 26.6207V39.931H71.3418V0.532549Z" fill="var(--fill-0, #CACACA)"/>
<path id="Vector_4" d="M41.2607 13.3108H49.2469V17.0377C50.8441 14.3757 53.7724 12.5122 56.9668 12.7784C65.4854 12.7784 66.8164 18.3687 66.8164 25.5563V40.1976H58.5641V26.8873C58.5641 23.6929 58.5641 19.6998 54.3048 19.6998C50.0455 19.6998 49.2469 23.1604 49.2469 26.6211V39.9314H40.9945V13.3108H41.2607Z" fill="var(--fill-0, #CACACA)"/>
<path id="Vector_5" d="M116.598 23.4262C116.598 20.7641 114.468 18.3683 111.806 18.3683H111.54C108.611 18.1021 105.949 20.4979 105.683 23.4262H116.598ZM123.519 35.4054C120.857 38.8661 116.598 40.7295 112.072 40.7295C103.82 40.7295 97.1646 35.1392 97.1646 26.6206C97.1646 18.1021 103.82 12.5117 112.072 12.5117C119.792 12.5117 124.584 18.1021 124.584 26.6206V29.2827H105.417C105.949 32.211 108.611 34.6068 111.54 34.6068C113.936 34.6068 116.065 33.2758 117.396 31.4123L123.519 35.4054Z" fill="var(--fill-0, #CACACA)"/>
<path id="Vector_6" d="M142.153 19.6994C137.894 19.6994 135.498 22.3614 135.498 26.6207C135.498 30.88 137.894 33.542 142.153 33.542C146.412 33.542 148.808 30.88 148.808 26.6207C148.808 22.3614 146.412 19.6994 142.153 19.6994ZM156.528 39.931H148.808V36.4703C146.945 39.1324 143.75 40.7296 140.556 40.7296C132.57 40.7296 127.246 34.8731 127.246 26.8869C127.246 19.4331 131.771 12.5118 139.491 12.5118C142.952 12.5118 146.146 13.5766 148.01 15.9725V0.532549H156.262L156.528 39.931Z" fill="var(--fill-0, #CACACA)"/>
</g>
</svg>
