<svg preserveAspectRatio="none" width="100%" height="100%" overflow="visible" style="display: block;" viewBox="0 0 120 36" fill="none" xmlns="http://www.w3.org/2000/svg">
<g id="hubspot-ar21 1">
<path id="Vector" d="M3.63281 7.74609H7.56348V16.4863H15.8545V7.74609H19.79V29.2305H15.8545V20.2705H7.56836V29.1816H3.63281V7.74609ZM32.2461 22.1992C32.2422 23.0618 31.8979 23.888 31.2879 24.4979C30.678 25.1078 29.8518 25.4522 28.9893 25.4561C28.1267 25.4522 27.3005 25.1078 26.6906 24.4979C26.0806 23.888 25.7363 23.0618 25.7324 22.1992V12.9219H22.0068V22.1992C22.0068 24.0511 22.7425 25.8271 24.0519 27.1365C25.3614 28.446 27.1374 29.1816 28.9893 29.1816C30.8411 29.1816 32.6171 28.446 33.9266 27.1365C35.236 25.8271 35.9717 24.0511 35.9717 22.1992V12.9219H32.2461V22.1992ZM46.3818 13.0781C45.5679 13.0415 44.7555 13.1794 43.9992 13.4826C43.243 13.7858 42.5603 14.2472 41.9971 14.8359V7.74609H38.2568V20.8906C38.2568 25.8125 41.8213 29.1816 45.8105 29.1816C50.2051 29.1816 54.1455 25.749 54.1455 21.125C54.1455 16.5596 50.5566 13.0684 46.333 13.0684L46.3818 13.0781ZM46.4795 25.7734C43.9404 25.7734 42.0068 23.6592 42.0068 21.1836C42.0068 18.708 43.9453 16.5938 46.4795 16.5938C48.6279 16.5938 50.5664 18.7129 50.5664 21.1836C50.5664 23.6543 48.6279 25.7734 46.4795 25.7734ZM60.4346 14.0693C60.4346 12.1895 61.6894 11.5938 63.0566 11.5938C64.1602 11.5938 65.6201 12.4238 66.5723 13.4492L69.0137 10.5879C67.793 8.94727 65.3174 7.81445 63.291 7.81445C59.2383 7.81445 56.3086 10.1729 56.3086 14.0791C56.3086 21.3252 65.2246 19.0303 65.2246 23.0879C65.2246 24.3379 64.0039 25.4414 62.6025 25.4414C60.3955 25.4414 59.6729 24.3672 58.667 23.2344L55.9521 26.0371C57.6807 28.1562 59.8291 29.2305 62.3975 29.2305C66.2451 29.2305 69.3457 26.8379 69.3457 23.1172C69.3457 15.0605 60.4297 17.5703 60.4297 14.084M79.1943 12.9316C75.1904 12.9316 71.6406 16.3496 71.6406 21.2227V34.4063H75.3809V27.2773C76.626 28.498 77.9199 29.0352 79.7656 29.0352C83.9404 29.0352 87.5781 25.5439 87.5781 20.9785C87.5781 16.3545 83.6816 12.9219 79.2383 12.9219L79.1943 12.9316ZM79.8584 25.627C77.3193 25.627 75.3857 23.5078 75.3857 21.0371C75.3857 18.5664 77.3242 16.4473 79.8584 16.4473C82.0068 16.4473 83.9453 18.5664 83.9453 21.0371C83.9453 23.5078 82.0068 25.627 79.8584 25.627ZM115.063 25.8369C112.856 25.8369 112.231 24.8848 112.231 23.4199V16.8428H115.659V13.5566H112.231V9.23047L108.447 10.9297V24.1133C108.447 27.5313 110.771 29.1816 113.965 29.1816C114.466 29.1915 114.966 29.1522 115.459 29.0645L116.387 25.666L115.068 25.7246" fill="var(--fill-0, #CACACA)"/>
<path id="Vector_2" d="M105.19 17.0332C104.473 15.7979 103.467 14.8115 102.202 14.0645C101.275 13.5165 100.247 13.1611 99.1797 13.0195V9.09863C99.7145 8.87809 100.171 8.50164 100.488 8.0183C100.806 7.53495 100.971 6.9671 100.962 6.38867C100.962 4.74316 99.6436 3.45898 97.998 3.45898C97.6061 3.4577 97.2177 3.53379 96.8552 3.6829C96.4927 3.83201 96.1632 4.0512 95.8856 4.32791C95.608 4.60462 95.3877 4.9334 95.2374 5.29541C95.0871 5.65742 95.0098 6.04553 95.0098 6.4375C95.0098 7.64356 95.6543 8.68359 96.7529 9.14746V13.0684C95.874 13.1953 94.9609 13.4688 94.126 13.8984L83.5693 5.88086C83.6475 5.60254 83.7061 5.31445 83.7061 5.01172C83.7061 3.19043 82.2314 1.71094 80.4053 1.71094C78.5791 1.71094 77.1094 3.19043 77.1094 5.01172C77.1094 6.83301 78.584 8.3125 80.4102 8.3125C81.0081 8.31082 81.5941 8.14532 82.1045 7.83399L82.7881 8.35645L92.2607 15.1826C91.7578 15.6416 91.294 16.1592 90.918 16.7549C90.1402 17.9271 89.7164 19.2984 89.6973 20.7051V20.998C89.6973 22.0039 89.8926 22.9512 90.2148 23.8545C90.5078 24.6357 90.9229 25.3438 91.4355 25.9883L88.291 29.1426C87.9061 28.9996 87.4922 28.9522 87.0849 29.0043C86.6776 29.0564 86.2891 29.2065 85.9525 29.4418C85.616 29.677 85.3415 29.9904 85.1527 30.355C84.9638 30.7196 84.8662 31.1245 84.8682 31.5352C84.8669 31.8702 84.9319 32.2023 85.0596 32.5121C85.1872 32.8219 85.3749 33.1034 85.6118 33.3403C85.8488 33.5773 86.1303 33.765 86.4401 33.8926C86.7499 34.0202 87.0819 34.0853 87.417 34.084C87.7521 34.0853 88.0841 34.0202 88.3939 33.8926C88.7037 33.765 88.9852 33.5773 89.2222 33.3403C89.4591 33.1034 89.6468 32.8219 89.7744 32.5121C89.9021 32.2023 89.9671 31.8702 89.9658 31.5352C89.9658 31.2715 89.9268 31.0127 89.8486 30.7686L93.1006 27.5166C93.5551 27.8273 94.0392 28.0922 94.5459 28.3076C95.6115 28.7737 96.7618 29.0147 97.9248 29.0156H98.1494C99.4972 29.022 100.824 28.6859 102.007 28.0391C103.276 27.3457 104.277 26.3984 105.034 25.1924C105.801 23.9905 106.207 22.5944 106.206 21.1689V21.0957C106.206 19.6455 105.864 18.3125 105.166 17.0918L105.19 17.0332ZM101.221 23.8594C100.342 24.8359 99.3262 25.4463 98.1787 25.4463H97.9834C97.3291 25.4463 96.6895 25.2656 96.0596 24.9385C95.3744 24.5825 94.7938 24.054 94.375 23.4053C93.9209 22.7607 93.6719 22.0625 93.6719 21.3154V21.0762C93.6719 20.3438 93.8184 19.6504 94.1602 18.9961C94.5234 18.2973 95.0639 17.7062 95.7275 17.2822C96.3965 16.7939 97.1045 16.6279 97.9004 16.6279H97.9736C98.6818 16.6174 99.382 16.7782 100.015 17.0967C100.669 17.4482 101.206 17.9268 101.626 18.5615C102.024 19.1787 102.27 19.8815 102.344 20.6123L102.363 21.0762C102.35 22.1158 101.937 23.1105 101.211 23.8545L101.221 23.8594Z" fill="var(--fill-0, #CACACA)"/>
</g>
</svg>
