<svg preserveAspectRatio="none" width="100%" height="100%" overflow="visible" style="display: block;" viewBox="0 0 44.4855 44.3272" fill="none" xmlns="http://www.w3.org/2000/svg">
<g id="Frame 46">
<rect width="44.4855" height="44.3271" rx="7.98617" fill="var(--fill-0, #151515)"/>
<path id="Vector" d="M41.0026 9.06254e-05H3.32454C1.4248 9.06254e-05 2.15609e-06 1.42489 2.15609e-06 3.16632V41.161C2.15609e-06 42.9024 1.4248 44.3272 3.32454 44.3272H41.1609C42.9023 44.3272 44.4855 42.9024 44.4855 41.161V3.16632C44.3271 1.42489 42.9023 9.06254e-05 41.0026 9.06254e-05ZM13.1398 37.8365H6.64907V16.6228H13.2981V37.8365H13.1398ZM9.8153 13.7732C7.75725 13.7732 6.01583 12.0317 6.01583 9.9737C6.01583 7.91565 7.75725 6.17423 9.8153 6.17423C11.8733 6.17423 13.6148 7.91565 13.6148 9.9737C13.6148 12.0317 12.0317 13.7732 9.8153 13.7732ZM37.8364 37.8365H31.3456V27.5462C31.3456 25.1716 31.3456 22.0054 27.8628 22.0054C24.3799 22.0054 23.905 24.6966 23.905 27.3879V37.8365H17.4142V16.6228H23.7467V19.4724H23.905C24.8549 17.8893 26.9129 15.9895 30.0791 15.9895C36.7282 15.9895 37.9947 20.4222 37.9947 26.1214V37.8365H37.8364Z" fill="var(--fill-0, #CACACA)"/>
</g>
</svg>
