<svg preserveAspectRatio="none" width="100%" height="100%" overflow="visible" style="display: block;" viewBox="0 0 20 20" fill="none" xmlns="http://www.w3.org/2000/svg">
<g id="subway:sound-1" clip-path="url(#clip0_0_6)">
<path id="Vector" d="M15.2591 10.0008C15.2591 8.61406 14.4114 7.42656 13.2083 6.92656L12.5676 8.46562C13.1692 8.71562 13.5911 9.30938 13.5911 10.0047C13.5911 10.6961 13.1692 11.2898 12.5676 11.5437L13.2083 13.0828C14.4114 12.575 15.2591 11.3875 15.2591 10.0008ZM14.4895 3.84844L13.8489 5.3875C15.6575 6.14141 16.927 7.92266 16.927 10.0008C16.927 12.0828 15.6575 13.8602 13.8489 14.6141L14.4895 16.1531C16.8997 15.1492 18.5911 12.7742 18.5911 10.0008C18.5911 7.22734 16.8997 4.85234 14.4895 3.84844ZM1.92702 5.83281V14.1648H5.25905L11.0911 20.0008V0.000781059L5.25905 5.83281H1.92702Z" fill="#34C759"/>
</g>
<defs>
<clipPath id="clip0_0_6">
<rect width="20" height="20" fill="white"/>
</clipPath>
</defs>
</svg>
